<mxfile host="app.diagrams.net" agent="Mozilla/5.0 (Macintosh; Intel Mac OS X 10_15_7) AppleWebKit/537.36 (KHTML, like Gecko) Chrome/131.0.0.0 Safari/537.36" version="25.0.1">
  <diagram name="Page-1" id="3ymYGkPru9BCjnd1s3d4">
    <mxGraphModel dx="858" dy="471" grid="1" gridSize="10" guides="1" tooltips="1" connect="1" arrows="1" fold="1" page="1" pageScale="1" pageWidth="850" pageHeight="1100" math="0" shadow="0">
      <root>
        <mxCell id="0" />
        <mxCell id="1" parent="0" />
        <mxCell id="HiQPfly1oImc-ZgxjPUC-4" style="edgeStyle=orthogonalEdgeStyle;rounded=0;orthogonalLoop=1;jettySize=auto;html=1;entryX=0.5;entryY=0;entryDx=0;entryDy=0;" parent="1" source="HiQPfly1oImc-ZgxjPUC-1" target="HiQPfly1oImc-ZgxjPUC-2" edge="1">
          <mxGeometry relative="1" as="geometry" />
        </mxCell>
        <mxCell id="HiQPfly1oImc-ZgxjPUC-1" value="Start" style="rounded=1;whiteSpace=wrap;html=1;" parent="1" vertex="1">
          <mxGeometry x="170" y="80" width="120" height="60" as="geometry" />
        </mxCell>
        <mxCell id="HiQPfly1oImc-ZgxjPUC-10" style="edgeStyle=orthogonalEdgeStyle;rounded=0;orthogonalLoop=1;jettySize=auto;html=1;entryX=0.5;entryY=0;entryDx=0;entryDy=0;" parent="1" source="HiQPfly1oImc-ZgxjPUC-2" target="HiQPfly1oImc-ZgxjPUC-9" edge="1">
          <mxGeometry relative="1" as="geometry" />
        </mxCell>
        <mxCell id="HiQPfly1oImc-ZgxjPUC-2" value="User visit&lt;div&gt;dashboard&lt;/div&gt;" style="rounded=0;whiteSpace=wrap;html=1;" parent="1" vertex="1">
          <mxGeometry x="170" y="190" width="120" height="60" as="geometry" />
        </mxCell>
        <mxCell id="HiQPfly1oImc-ZgxjPUC-7" style="edgeStyle=orthogonalEdgeStyle;rounded=0;orthogonalLoop=1;jettySize=auto;html=1;entryX=0.5;entryY=0;entryDx=0;entryDy=0;exitX=0.5;exitY=1;exitDx=0;exitDy=0;" parent="1" source="HiQPfly1oImc-ZgxjPUC-36" target="HiQPfly1oImc-ZgxjPUC-6" edge="1">
          <mxGeometry relative="1" as="geometry">
            <mxPoint x="230" y="510" as="sourcePoint" />
          </mxGeometry>
        </mxCell>
        <mxCell id="HiQPfly1oImc-ZgxjPUC-6" value="Stop" style="rounded=1;whiteSpace=wrap;html=1;" parent="1" vertex="1">
          <mxGeometry x="170" y="560" width="120" height="60" as="geometry" />
        </mxCell>
        <mxCell id="HiQPfly1oImc-ZgxjPUC-8" value="&lt;b&gt;Show all contacts&lt;/b&gt;" style="text;html=1;align=center;verticalAlign=middle;resizable=0;points=[];autosize=1;strokeColor=none;fillColor=none;" parent="1" vertex="1">
          <mxGeometry x="170" y="50" width="120" height="30" as="geometry" />
        </mxCell>
        <mxCell id="HiQPfly1oImc-ZgxjPUC-11" style="edgeStyle=orthogonalEdgeStyle;rounded=0;orthogonalLoop=1;jettySize=auto;html=1;entryX=0.5;entryY=0;entryDx=0;entryDy=0;" parent="1" source="HiQPfly1oImc-ZgxjPUC-9" target="HiQPfly1oImc-ZgxjPUC-36" edge="1">
          <mxGeometry relative="1" as="geometry">
            <mxPoint x="230" y="450" as="targetPoint" />
          </mxGeometry>
        </mxCell>
        <mxCell id="HiQPfly1oImc-ZgxjPUC-15" value="Yes" style="edgeLabel;html=1;align=center;verticalAlign=middle;resizable=0;points=[];" parent="HiQPfly1oImc-ZgxjPUC-11" vertex="1" connectable="0">
          <mxGeometry x="-0.24" relative="1" as="geometry">
            <mxPoint as="offset" />
          </mxGeometry>
        </mxCell>
        <mxCell id="HiQPfly1oImc-ZgxjPUC-13" style="edgeStyle=orthogonalEdgeStyle;rounded=0;orthogonalLoop=1;jettySize=auto;html=1;entryX=0;entryY=0.5;entryDx=0;entryDy=0;" parent="1" source="HiQPfly1oImc-ZgxjPUC-9" target="HiQPfly1oImc-ZgxjPUC-66" edge="1">
          <mxGeometry relative="1" as="geometry">
            <mxPoint x="376" y="343" as="targetPoint" />
          </mxGeometry>
        </mxCell>
        <mxCell id="HiQPfly1oImc-ZgxjPUC-14" value="No" style="edgeLabel;html=1;align=center;verticalAlign=middle;resizable=0;points=[];" parent="HiQPfly1oImc-ZgxjPUC-13" vertex="1" connectable="0">
          <mxGeometry x="-0.2" y="2" relative="1" as="geometry">
            <mxPoint as="offset" />
          </mxGeometry>
        </mxCell>
        <mxCell id="HiQPfly1oImc-ZgxjPUC-9" value="Is there any contacts?" style="rhombus;whiteSpace=wrap;html=1;" parent="1" vertex="1">
          <mxGeometry x="190" y="300" width="80" height="80" as="geometry" />
        </mxCell>
        <mxCell id="HiQPfly1oImc-ZgxjPUC-16" style="edgeStyle=orthogonalEdgeStyle;rounded=0;orthogonalLoop=1;jettySize=auto;html=1;entryX=1;entryY=0.5;entryDx=0;entryDy=0;exitX=0.413;exitY=0.998;exitDx=0;exitDy=0;exitPerimeter=0;" parent="1" source="HiQPfly1oImc-ZgxjPUC-66" target="HiQPfly1oImc-ZgxjPUC-6" edge="1">
          <mxGeometry relative="1" as="geometry">
            <mxPoint x="420" y="370" as="sourcePoint" />
          </mxGeometry>
        </mxCell>
        <mxCell id="HiQPfly1oImc-ZgxjPUC-20" style="edgeStyle=orthogonalEdgeStyle;rounded=0;orthogonalLoop=1;jettySize=auto;html=1;entryX=0.5;entryY=0;entryDx=0;entryDy=0;" parent="1" source="HiQPfly1oImc-ZgxjPUC-17" target="HiQPfly1oImc-ZgxjPUC-19" edge="1">
          <mxGeometry relative="1" as="geometry" />
        </mxCell>
        <mxCell id="HiQPfly1oImc-ZgxjPUC-17" value="Start" style="rounded=1;whiteSpace=wrap;html=1;" parent="1" vertex="1">
          <mxGeometry x="790" y="80" width="120" height="60" as="geometry" />
        </mxCell>
        <mxCell id="HiQPfly1oImc-ZgxjPUC-18" value="&lt;b&gt;Search Contact&lt;/b&gt;" style="text;html=1;align=center;verticalAlign=middle;resizable=0;points=[];autosize=1;strokeColor=none;fillColor=none;" parent="1" vertex="1">
          <mxGeometry x="795" y="50" width="110" height="30" as="geometry" />
        </mxCell>
        <mxCell id="HiQPfly1oImc-ZgxjPUC-22" style="edgeStyle=orthogonalEdgeStyle;rounded=0;orthogonalLoop=1;jettySize=auto;html=1;entryX=0.5;entryY=0;entryDx=0;entryDy=0;" parent="1" source="HiQPfly1oImc-ZgxjPUC-19" target="HiQPfly1oImc-ZgxjPUC-21" edge="1">
          <mxGeometry relative="1" as="geometry" />
        </mxCell>
        <mxCell id="HiQPfly1oImc-ZgxjPUC-19" value="Type some keyword in field search" style="rounded=0;whiteSpace=wrap;html=1;" parent="1" vertex="1">
          <mxGeometry x="790" y="200" width="120" height="60" as="geometry" />
        </mxCell>
        <mxCell id="HiQPfly1oImc-ZgxjPUC-23" style="edgeStyle=orthogonalEdgeStyle;rounded=0;orthogonalLoop=1;jettySize=auto;html=1;entryX=0.5;entryY=1;entryDx=0;entryDy=0;" parent="1" source="HiQPfly1oImc-ZgxjPUC-21" edge="1">
          <mxGeometry relative="1" as="geometry">
            <mxPoint x="1040" y="260" as="targetPoint" />
          </mxGeometry>
        </mxCell>
        <mxCell id="HiQPfly1oImc-ZgxjPUC-24" value="No" style="edgeLabel;html=1;align=center;verticalAlign=middle;resizable=0;points=[];" parent="HiQPfly1oImc-ZgxjPUC-23" vertex="1" connectable="0">
          <mxGeometry x="-0.1251" y="1" relative="1" as="geometry">
            <mxPoint as="offset" />
          </mxGeometry>
        </mxCell>
        <mxCell id="HiQPfly1oImc-ZgxjPUC-29" style="edgeStyle=orthogonalEdgeStyle;rounded=0;orthogonalLoop=1;jettySize=auto;html=1;entryX=1;entryY=0.5;entryDx=0;entryDy=0;" parent="1" source="HiQPfly1oImc-ZgxjPUC-21" target="HiQPfly1oImc-ZgxjPUC-19" edge="1">
          <mxGeometry relative="1" as="geometry">
            <Array as="points">
              <mxPoint x="950" y="360" />
              <mxPoint x="950" y="230" />
            </Array>
          </mxGeometry>
        </mxCell>
        <mxCell id="HiQPfly1oImc-ZgxjPUC-30" value="No" style="edgeLabel;html=1;align=center;verticalAlign=middle;resizable=0;points=[];" parent="HiQPfly1oImc-ZgxjPUC-29" vertex="1" connectable="0">
          <mxGeometry x="0.1636" y="-1" relative="1" as="geometry">
            <mxPoint as="offset" />
          </mxGeometry>
        </mxCell>
        <mxCell id="HiQPfly1oImc-ZgxjPUC-31" style="edgeStyle=orthogonalEdgeStyle;rounded=0;orthogonalLoop=1;jettySize=auto;html=1;entryX=0.5;entryY=0;entryDx=0;entryDy=0;" parent="1" source="HiQPfly1oImc-ZgxjPUC-21" edge="1">
          <mxGeometry relative="1" as="geometry">
            <mxPoint x="850" y="469.9999999999999" as="targetPoint" />
          </mxGeometry>
        </mxCell>
        <mxCell id="HiQPfly1oImc-ZgxjPUC-21" value="is contact found?" style="rhombus;whiteSpace=wrap;html=1;" parent="1" vertex="1">
          <mxGeometry x="810" y="320" width="80" height="80" as="geometry" />
        </mxCell>
        <mxCell id="HiQPfly1oImc-ZgxjPUC-35" style="edgeStyle=orthogonalEdgeStyle;rounded=0;orthogonalLoop=1;jettySize=auto;html=1;entryX=1;entryY=0.5;entryDx=0;entryDy=0;" parent="1" source="HiQPfly1oImc-ZgxjPUC-27" target="HiQPfly1oImc-ZgxjPUC-33" edge="1">
          <mxGeometry relative="1" as="geometry">
            <Array as="points">
              <mxPoint x="1120" y="230" />
              <mxPoint x="1120" y="630" />
            </Array>
          </mxGeometry>
        </mxCell>
        <mxCell id="HiQPfly1oImc-ZgxjPUC-27" value="Contact not found" style="shape=parallelogram;perimeter=parallelogramPerimeter;whiteSpace=wrap;html=1;fixedSize=1;" parent="1" vertex="1">
          <mxGeometry x="980" y="200" width="120" height="60" as="geometry" />
        </mxCell>
        <mxCell id="HiQPfly1oImc-ZgxjPUC-34" style="edgeStyle=orthogonalEdgeStyle;rounded=0;orthogonalLoop=1;jettySize=auto;html=1;entryX=0.5;entryY=0;entryDx=0;entryDy=0;" parent="1" source="HiQPfly1oImc-ZgxjPUC-32" target="HiQPfly1oImc-ZgxjPUC-33" edge="1">
          <mxGeometry relative="1" as="geometry" />
        </mxCell>
        <mxCell id="HiQPfly1oImc-ZgxjPUC-32" value="Contact found" style="shape=parallelogram;perimeter=parallelogramPerimeter;whiteSpace=wrap;html=1;fixedSize=1;" parent="1" vertex="1">
          <mxGeometry x="790" y="470" width="120" height="60" as="geometry" />
        </mxCell>
        <mxCell id="HiQPfly1oImc-ZgxjPUC-33" value="Stop" style="rounded=1;whiteSpace=wrap;html=1;" parent="1" vertex="1">
          <mxGeometry x="790" y="600" width="120" height="60" as="geometry" />
        </mxCell>
        <mxCell id="HiQPfly1oImc-ZgxjPUC-36" value="Show all contacts&lt;div&gt;information&lt;/div&gt;" style="shape=parallelogram;perimeter=parallelogramPerimeter;whiteSpace=wrap;html=1;fixedSize=1;" parent="1" vertex="1">
          <mxGeometry x="170" y="450" width="120" height="60" as="geometry" />
        </mxCell>
        <mxCell id="HiQPfly1oImc-ZgxjPUC-42" style="edgeStyle=orthogonalEdgeStyle;rounded=0;orthogonalLoop=1;jettySize=auto;html=1;entryX=0.5;entryY=0;entryDx=0;entryDy=0;" parent="1" source="HiQPfly1oImc-ZgxjPUC-37" target="HiQPfly1oImc-ZgxjPUC-39" edge="1">
          <mxGeometry relative="1" as="geometry" />
        </mxCell>
        <mxCell id="HiQPfly1oImc-ZgxjPUC-37" value="Start" style="rounded=1;whiteSpace=wrap;html=1;" parent="1" vertex="1">
          <mxGeometry x="170" y="730" width="120" height="60" as="geometry" />
        </mxCell>
        <mxCell id="HiQPfly1oImc-ZgxjPUC-38" value="&lt;b&gt;Delete contact&lt;/b&gt;" style="text;html=1;align=center;verticalAlign=middle;resizable=0;points=[];autosize=1;strokeColor=none;fillColor=none;" parent="1" vertex="1">
          <mxGeometry x="175" y="700" width="110" height="30" as="geometry" />
        </mxCell>
        <mxCell id="HiQPfly1oImc-ZgxjPUC-45" style="edgeStyle=orthogonalEdgeStyle;rounded=0;orthogonalLoop=1;jettySize=auto;html=1;entryX=0.5;entryY=0;entryDx=0;entryDy=0;" parent="1" source="HiQPfly1oImc-ZgxjPUC-39" target="HiQPfly1oImc-ZgxjPUC-40" edge="1">
          <mxGeometry relative="1" as="geometry" />
        </mxCell>
        <mxCell id="HiQPfly1oImc-ZgxjPUC-39" value="Press delete button" style="rounded=0;whiteSpace=wrap;html=1;" parent="1" vertex="1">
          <mxGeometry x="170" y="840" width="120" height="60" as="geometry" />
        </mxCell>
        <mxCell id="HiQPfly1oImc-ZgxjPUC-44" style="edgeStyle=orthogonalEdgeStyle;rounded=0;orthogonalLoop=1;jettySize=auto;html=1;entryX=0.5;entryY=0;entryDx=0;entryDy=0;" parent="1" source="HiQPfly1oImc-ZgxjPUC-40" target="HiQPfly1oImc-ZgxjPUC-41" edge="1">
          <mxGeometry relative="1" as="geometry" />
        </mxCell>
        <mxCell id="HiQPfly1oImc-ZgxjPUC-40" value="Cotact is deleted" style="shape=parallelogram;perimeter=parallelogramPerimeter;whiteSpace=wrap;html=1;fixedSize=1;" parent="1" vertex="1">
          <mxGeometry x="170" y="970" width="120" height="60" as="geometry" />
        </mxCell>
        <mxCell id="HiQPfly1oImc-ZgxjPUC-41" value="Stop" style="rounded=1;whiteSpace=wrap;html=1;" parent="1" vertex="1">
          <mxGeometry x="170" y="1110" width="120" height="60" as="geometry" />
        </mxCell>
        <mxCell id="HiQPfly1oImc-ZgxjPUC-49" style="edgeStyle=orthogonalEdgeStyle;rounded=0;orthogonalLoop=1;jettySize=auto;html=1;entryX=0.5;entryY=0;entryDx=0;entryDy=0;" parent="1" source="HiQPfly1oImc-ZgxjPUC-46" target="HiQPfly1oImc-ZgxjPUC-48" edge="1">
          <mxGeometry relative="1" as="geometry" />
        </mxCell>
        <mxCell id="HiQPfly1oImc-ZgxjPUC-46" value="Start" style="rounded=1;whiteSpace=wrap;html=1;" parent="1" vertex="1">
          <mxGeometry x="480" y="730" width="120" height="60" as="geometry" />
        </mxCell>
        <mxCell id="HiQPfly1oImc-ZgxjPUC-47" value="&lt;b&gt;Update Contact&lt;/b&gt;" style="text;html=1;align=center;verticalAlign=middle;resizable=0;points=[];autosize=1;strokeColor=none;fillColor=none;" parent="1" vertex="1">
          <mxGeometry x="485" y="700" width="110" height="30" as="geometry" />
        </mxCell>
        <mxCell id="HiQPfly1oImc-ZgxjPUC-53" style="edgeStyle=orthogonalEdgeStyle;rounded=0;orthogonalLoop=1;jettySize=auto;html=1;entryX=0.5;entryY=0;entryDx=0;entryDy=0;" parent="1" source="HiQPfly1oImc-ZgxjPUC-48" target="HiQPfly1oImc-ZgxjPUC-50" edge="1">
          <mxGeometry relative="1" as="geometry" />
        </mxCell>
        <mxCell id="HiQPfly1oImc-ZgxjPUC-48" value="Press update button" style="rounded=0;whiteSpace=wrap;html=1;" parent="1" vertex="1">
          <mxGeometry x="480" y="840" width="120" height="60" as="geometry" />
        </mxCell>
        <mxCell id="HiQPfly1oImc-ZgxjPUC-54" style="edgeStyle=orthogonalEdgeStyle;rounded=0;orthogonalLoop=1;jettySize=auto;html=1;entryX=0.5;entryY=0;entryDx=0;entryDy=0;" parent="1" source="HiQPfly1oImc-ZgxjPUC-50" target="HiQPfly1oImc-ZgxjPUC-51" edge="1">
          <mxGeometry relative="1" as="geometry" />
        </mxCell>
        <mxCell id="HiQPfly1oImc-ZgxjPUC-50" value="Show update form and update contact data" style="shape=parallelogram;perimeter=parallelogramPerimeter;whiteSpace=wrap;html=1;fixedSize=1;" parent="1" vertex="1">
          <mxGeometry x="480" y="970" width="120" height="60" as="geometry" />
        </mxCell>
        <mxCell id="HiQPfly1oImc-ZgxjPUC-55" style="edgeStyle=orthogonalEdgeStyle;rounded=0;orthogonalLoop=1;jettySize=auto;html=1;entryX=0.5;entryY=0;entryDx=0;entryDy=0;" parent="1" source="HiQPfly1oImc-ZgxjPUC-51" target="HiQPfly1oImc-ZgxjPUC-52" edge="1">
          <mxGeometry relative="1" as="geometry" />
        </mxCell>
        <mxCell id="HiQPfly1oImc-ZgxjPUC-51" value="Press save button" style="rounded=0;whiteSpace=wrap;html=1;" parent="1" vertex="1">
          <mxGeometry x="480" y="1090" width="120" height="60" as="geometry" />
        </mxCell>
        <mxCell id="HiQPfly1oImc-ZgxjPUC-52" value="Stop" style="rounded=1;whiteSpace=wrap;html=1;" parent="1" vertex="1">
          <mxGeometry x="480" y="1210" width="120" height="60" as="geometry" />
        </mxCell>
        <mxCell id="HiQPfly1oImc-ZgxjPUC-56" style="edgeStyle=orthogonalEdgeStyle;rounded=0;orthogonalLoop=1;jettySize=auto;html=1;entryX=0.5;entryY=0;entryDx=0;entryDy=0;" parent="1" source="HiQPfly1oImc-ZgxjPUC-57" target="HiQPfly1oImc-ZgxjPUC-60" edge="1">
          <mxGeometry relative="1" as="geometry" />
        </mxCell>
        <mxCell id="HiQPfly1oImc-ZgxjPUC-57" value="Start" style="rounded=1;whiteSpace=wrap;html=1;" parent="1" vertex="1">
          <mxGeometry x="760" y="730" width="120" height="60" as="geometry" />
        </mxCell>
        <mxCell id="HiQPfly1oImc-ZgxjPUC-58" value="&lt;b&gt;Create Contact&lt;/b&gt;" style="text;html=1;align=center;verticalAlign=middle;resizable=0;points=[];autosize=1;strokeColor=none;fillColor=none;" parent="1" vertex="1">
          <mxGeometry x="765" y="700" width="110" height="30" as="geometry" />
        </mxCell>
        <mxCell id="HiQPfly1oImc-ZgxjPUC-59" style="edgeStyle=orthogonalEdgeStyle;rounded=0;orthogonalLoop=1;jettySize=auto;html=1;entryX=0.5;entryY=0;entryDx=0;entryDy=0;" parent="1" source="HiQPfly1oImc-ZgxjPUC-60" target="HiQPfly1oImc-ZgxjPUC-62" edge="1">
          <mxGeometry relative="1" as="geometry" />
        </mxCell>
        <mxCell id="HiQPfly1oImc-ZgxjPUC-60" value="Create new&lt;div&gt;contact&lt;/div&gt;" style="rounded=0;whiteSpace=wrap;html=1;" parent="1" vertex="1">
          <mxGeometry x="760" y="840" width="120" height="60" as="geometry" />
        </mxCell>
        <mxCell id="HiQPfly1oImc-ZgxjPUC-61" style="edgeStyle=orthogonalEdgeStyle;rounded=0;orthogonalLoop=1;jettySize=auto;html=1;entryX=0.5;entryY=0;entryDx=0;entryDy=0;" parent="1" source="HiQPfly1oImc-ZgxjPUC-62" target="HiQPfly1oImc-ZgxjPUC-64" edge="1">
          <mxGeometry relative="1" as="geometry" />
        </mxCell>
        <mxCell id="HiQPfly1oImc-ZgxjPUC-62" value="Show create form" style="shape=parallelogram;perimeter=parallelogramPerimeter;whiteSpace=wrap;html=1;fixedSize=1;" parent="1" vertex="1">
          <mxGeometry x="760" y="970" width="120" height="60" as="geometry" />
        </mxCell>
        <mxCell id="HiQPfly1oImc-ZgxjPUC-63" style="edgeStyle=orthogonalEdgeStyle;rounded=0;orthogonalLoop=1;jettySize=auto;html=1;entryX=0.5;entryY=0;entryDx=0;entryDy=0;" parent="1" source="HiQPfly1oImc-ZgxjPUC-64" target="HiQPfly1oImc-ZgxjPUC-65" edge="1">
          <mxGeometry relative="1" as="geometry" />
        </mxCell>
        <mxCell id="HiQPfly1oImc-ZgxjPUC-64" value="Save new contact" style="rounded=0;whiteSpace=wrap;html=1;" parent="1" vertex="1">
          <mxGeometry x="760" y="1090" width="120" height="60" as="geometry" />
        </mxCell>
        <mxCell id="HiQPfly1oImc-ZgxjPUC-65" value="Stop" style="rounded=1;whiteSpace=wrap;html=1;" parent="1" vertex="1">
          <mxGeometry x="760" y="1210" width="120" height="60" as="geometry" />
        </mxCell>
        <mxCell id="HiQPfly1oImc-ZgxjPUC-66" value="Show empty contact message" style="shape=parallelogram;perimeter=parallelogramPerimeter;whiteSpace=wrap;html=1;fixedSize=1;" parent="1" vertex="1">
          <mxGeometry x="370" y="310" width="110" height="60" as="geometry" />
        </mxCell>
        <mxCell id="nZZ2vUpKcsNDnGbu6Ddm-1" value="Fill out&lt;div&gt;contact information&lt;/div&gt;" style="shape=parallelogram;perimeter=parallelogramPerimeter;whiteSpace=wrap;html=1;fixedSize=1;" vertex="1" parent="1">
          <mxGeometry x="830" y="1030" width="120" height="60" as="geometry" />
        </mxCell>
      </root>
    </mxGraphModel>
  </diagram>
</mxfile>
